<svg width="194" height="192" viewBox="0 0 194 192" fill="none" xmlns="http://www.w3.org/2000/svg">
<mask id="mask0_23232_8103" style="mask-type:alpha" maskUnits="userSpaceOnUse" x="0" y="0" width="194" height="192">
<rect width="194" height="192" fill="#C4C4C4"/>
</mask>
<g mask="url(#mask0_23232_8103)">
<path fill-rule="evenodd" clip-rule="evenodd" d="M66.0003 10.6667C0.933655 10.6667 -51.333 62.9333 -51.333 128C-51.333 193.067 0.933655 245.333 66.0003 245.333C131.067 245.333 183.334 193.067 183.334 128C183.334 62.9333 131.067 10.6667 66.0003 10.6667ZM66.0003 224C12.667 224 -29.9997 181.333 -29.9997 128C-29.9997 74.6667 12.667 32 66.0003 32C119.334 32 162 74.6667 162 128C162 181.333 119.334 224 66.0003 224ZM66.0003 74.6667C59.6003 74.6667 55.3337 78.9334 55.3337 85.3334V128C55.3337 134.4 59.6003 138.667 66.0003 138.667C72.4003 138.667 76.667 134.4 76.667 128V85.3334C76.667 78.9334 72.4003 74.6667 66.0003 74.6667ZM70.267 161.067C71.3337 161.067 72.4003 162.134 73.467 163.2C74.5337 164.267 75.6003 165.334 75.6003 166.4C75.6003 166.842 75.7833 167.284 75.9978 167.802C76.301 168.534 76.667 169.417 76.667 170.667C76.667 173.867 75.6003 176 73.467 178.134C71.3337 180.267 69.2003 181.334 66.0003 181.334C64.9337 181.334 62.8003 181.334 61.7337 180.267C60.667 180.267 59.6003 179.2 58.5337 178.134C56.4003 176 55.3337 173.867 55.3337 170.667C55.3337 169.6 55.3337 167.467 56.4003 166.4C56.9337 165.867 57.2003 165.334 57.467 164.8C57.7337 164.267 58.0003 163.734 58.5337 163.2C59.6003 162.134 60.667 161.067 61.7337 161.067C63.867 160 67.067 160 70.267 161.067Z" fill="#626277"/>
</g>
</svg>
