<svg width="564" height="94" viewBox="0 0 564 94" fill="none" xmlns="http://www.w3.org/2000/svg">
<path fill-rule="evenodd" clip-rule="evenodd" d="M499.411 61.7202C499.45 66.157 498.753 70.5695 497.349 74.7778C496.082 78.5473 494.047 82.0119 491.372 84.9519C488.74 87.7775 485.533 90.0057 481.969 91.4866C478.076 93.068 473.906 93.8508 469.706 93.7889C465.546 93.8479 461.418 93.0649 457.568 91.4866C453.998 90.0182 450.791 87.7882 448.169 84.9519C445.482 82.0067 443.408 78.5549 442.068 74.7979C440.57 70.6062 439.832 66.1801 439.89 61.7283C439.832 57.2854 440.587 52.8694 442.118 48.699C443.495 44.9633 445.609 41.544 448.335 38.6456C451.014 35.8618 454.235 33.6583 457.798 32.1711C465.483 29.1015 474.049 29.1015 481.733 32.1711C485.283 33.6418 488.483 35.8483 491.122 38.6456C493.825 41.5389 495.901 44.962 497.218 48.699C498.726 52.8717 499.469 57.2829 499.411 61.7202ZM483.881 9.68652L464.944 25.7067L457.036 18.6693L473.333 0L483.881 9.68652ZM481.914 61.7082C481.914 56.4 480.85 52.2429 478.743 49.1967C476.635 46.1505 473.62 44.6726 469.711 44.6726C465.802 44.6726 462.761 46.1806 460.618 49.1967C458.476 52.2127 457.392 56.4 457.392 61.7082C457.392 67.0165 458.466 71.2289 460.618 74.3404C462.771 77.452 465.797 79.0153 469.711 79.0153C473.625 79.0153 476.64 77.4369 478.743 74.3404C480.845 71.244 481.914 67.0265 481.914 61.7082ZM426.357 21.3938C428.387 19.5909 429.403 17.1144 429.403 13.9643L429.408 13.9743C429.404 10.8142 428.389 8.33434 426.362 6.53476C424.365 4.79429 421.808 3.83566 419.161 3.83566C416.515 3.83566 413.957 4.79429 411.961 6.53476C409.95 8.33434 408.945 10.8108 408.945 13.9643C408.945 17.1177 409.949 19.5942 411.956 21.3938C413.948 23.1432 416.507 24.1077 419.156 24.1077C421.806 24.1077 424.365 23.1432 426.357 21.3938ZM410.646 92.1703H427.802L427.797 31.4925H410.646V92.1703ZM51.3621 17.6036C44.9773 13.4076 35.8499 11.3081 23.98 11.3051C20.6683 11.3051 16.8247 11.4459 12.4391 11.7676C8.26467 12.0572 4.11102 12.5944 0 13.3762V92.1854H17.9637V65.4381H23.6087C35.5962 65.4381 44.7688 63.2866 51.2367 59.024C57.7046 54.7613 60.9311 47.754 60.9311 38.2032C60.9311 28.6524 57.7046 21.7809 51.3621 17.6036ZM21.2303 26.7573C22.5098 26.6819 23.7843 26.6417 25.089 26.6417C27.4868 26.6193 29.8822 26.8009 32.2494 27.1846C34.1737 27.4432 36.0315 28.0659 37.7238 29.0194C39.1736 29.8562 40.3688 31.0726 41.181 32.5381C42.0435 34.2493 42.4579 36.1519 42.3853 38.0675C42.3853 42.672 40.8198 45.8187 37.6585 47.5178C34.4973 49.2168 29.8458 50.0613 23.6087 50.0613H17.9537V26.9936C18.8669 26.8981 19.9507 26.8327 21.2303 26.7573ZM102.965 45.5322C105.053 45.9293 106.844 46.3516 108.384 46.7487L111.234 32.5532C110.158 32.1135 109.042 31.7769 107.903 31.5478C106.626 31.2881 105.345 31.0857 104.073 30.8848L103.974 30.8692C102.669 30.6631 101.369 30.5224 100.07 30.4118C98.7702 30.3012 97.6513 30.2358 96.713 30.2358C92.0158 30.1848 87.3279 30.6654 82.7384 31.6684C79.0585 32.4713 75.4293 33.4918 71.8699 34.7247V92.1753H89.0458V45.8137C90.1576 45.5064 91.2944 45.2978 92.4428 45.1904C93.7187 44.9978 95.0063 44.8937 96.2965 44.8787C98.536 44.8635 100.771 45.0826 102.965 45.5322ZM174.81 61.7082C174.859 66.1506 174.158 70.5693 172.738 74.7778C171.466 78.5496 169.424 82.0146 166.741 84.9519C164.12 87.7882 160.912 90.0182 157.343 91.4866C149.507 94.5511 140.807 94.5511 132.972 91.4866C129.407 90.0057 126.201 87.7775 123.568 84.9519C120.88 82.0067 118.81 78.5502 117.482 74.7878C115.971 70.599 115.224 66.1719 115.279 61.7183C115.229 57.2738 115.993 52.8578 117.532 48.689C118.897 44.9452 121.016 41.523 123.759 38.6355C126.431 35.8567 129.643 33.6565 133.197 32.1711C136.97 30.6089 141.018 29.8258 145.1 29.8689C149.227 29.8216 153.322 30.6044 157.142 32.1711C160.681 33.6522 163.872 35.8574 166.51 38.6456C169.209 41.5456 171.288 44.9665 172.622 48.699C174.123 52.8762 174.866 57.289 174.815 61.7283L174.81 61.7082ZM157.313 61.7283C157.313 56.4201 156.244 52.263 154.127 49.2168C152.009 46.1706 149.013 44.6927 145.095 44.6927C141.176 44.6927 138.13 46.2007 135.987 49.2168C133.845 52.2328 132.756 56.4201 132.756 61.7283C132.756 67.0366 133.845 71.249 135.987 74.3605C138.13 77.4721 141.166 79.0354 145.095 79.0354C149.023 79.0354 152.004 77.457 154.127 74.3605C156.249 71.2641 157.313 67.0466 157.313 61.7283ZM203.477 13.5973L186.326 16.3671V67.3583C186.278 70.9648 186.638 74.5651 187.4 78.0904C188.013 81.1079 189.332 83.9366 191.248 86.3443C193.212 88.7058 195.743 90.5275 198.604 91.6374C201.715 92.9192 205.564 93.5426 210.246 93.5426C213.387 93.612 216.526 93.3032 219.594 92.6227C221.949 92.0713 224.26 91.3455 226.508 90.4511L224.095 77.0498C222.356 77.7021 220.558 78.1836 218.726 78.4875C216.846 78.8384 214.938 79.0151 213.025 79.0153C209.207 79.0153 206.648 77.9697 205.373 75.7932C204.099 73.6166 203.477 70.7463 203.477 67.1321V45.7986H224.095V31.4925H203.477V13.5973ZM231.682 62.2712C231.682 56.9077 232.504 52.2178 234.19 48.1562C235.658 44.3914 237.866 40.9606 240.683 38.0675C243.318 35.4065 246.478 33.3262 249.961 31.96C253.382 30.5778 257.036 29.8695 260.725 29.8739C269.322 29.8739 276.114 32.5079 281.102 37.7759C286.12 43.0389 288.628 50.8052 288.628 61.0145C288.628 62.0199 288.578 63.1308 288.513 64.302C288.448 65.4733 288.363 66.5641 288.267 67.4789H249.294C249.445 69.1635 249.969 70.7932 250.828 72.249C251.687 73.7048 252.861 74.95 254.262 75.8937C257.167 77.9798 261.091 79.0153 266.003 79.0153C269.116 79.025 272.222 78.7389 275.281 78.1608C277.827 77.7184 280.316 76.9934 282.702 75.9993L285.011 89.9786C283.826 90.5369 282.598 90.9959 281.338 91.3509C279.652 91.8487 277.94 92.2498 276.209 92.5523C274.329 92.9142 272.314 93.2058 270.163 93.4269C268.022 93.6607 265.869 93.7765 263.715 93.7738C258.256 93.7738 253.529 92.9595 249.495 91.3509C245.7 89.9115 242.272 87.6451 239.459 84.7156C236.795 81.8643 234.792 78.4589 233.593 74.7426C232.3 70.7119 231.658 66.5 231.692 62.2662L231.682 62.2712ZM272.005 55.7314C271.931 54.2799 271.678 52.843 271.252 51.4537C270.846 50.1035 270.18 48.8464 269.29 47.754C268.365 46.6528 267.226 45.7515 265.943 45.1049C264.374 44.3708 262.656 44.0128 260.925 44.0594C259.218 44.0187 257.523 44.3515 255.958 45.0345C254.64 45.6543 253.467 46.5449 252.515 47.6485C251.574 48.7514 250.847 50.0217 250.373 51.3934C249.888 52.7998 249.521 54.2441 249.274 55.7113L272.005 55.7314ZM299.919 49.438C298.476 53.4081 297.752 57.6041 297.781 61.8289C297.742 66.1067 298.343 70.3662 299.562 74.4661C300.675 78.197 302.598 81.6353 305.192 84.5346C307.935 87.4913 311.3 89.8006 315.042 91.2956C319.066 92.9343 323.818 93.7688 329.338 93.7688C332.662 93.7924 335.98 93.4843 339.243 92.8489C341.801 92.371 344.304 91.6368 346.714 90.6572L344.311 76.5823C342.206 77.4636 339.999 78.0799 337.743 78.4171C335.535 78.8046 333.3 79.0114 331.059 79.0354C325.228 79.0354 321.124 77.5173 318.801 74.5113C316.477 71.5053 315.288 67.2879 315.288 61.8289C315.288 56.6765 316.573 52.5143 319.046 49.3676C321.52 46.2208 325.349 44.6525 330.367 44.6525C332.537 44.6203 334.704 44.8499 336.819 45.3361C338.614 45.7623 340.381 46.3013 342.108 46.9497L345.691 33.2569C343.165 32.1738 340.542 31.3323 337.858 30.7435C334.942 30.1476 331.972 29.8595 328.997 29.884C324.496 29.8011 320.028 30.6571 315.875 32.3973C312.179 33.9709 308.852 36.299 306.104 39.233C303.357 42.1671 301.25 45.6426 299.919 49.438ZM351.321 61.8289C351.298 57.605 352.02 53.4103 353.453 49.438C354.791 45.6453 356.901 42.1723 359.648 39.2389C362.396 36.3056 365.722 33.9759 369.415 32.3973C373.565 30.6612 378.03 29.8055 382.526 29.884C388.266 29.8031 393.957 30.9478 399.221 33.2418L395.683 46.9497C393.952 46.3022 392.182 45.7633 390.384 45.3362C388.27 44.8506 386.105 44.621 383.936 44.6525C378.879 44.6525 375.085 46.2209 372.596 49.3676C370.107 52.5143 368.868 56.6765 368.868 61.8289C368.868 67.2879 370.027 71.5054 372.38 74.5113C374.734 77.5173 378.808 79.0354 384.639 79.0354C386.871 79.0087 389.098 78.8019 391.298 78.4171C393.549 78.0774 395.75 77.4612 397.851 76.5824L400.279 90.6572C397.864 91.6339 395.358 92.368 392.798 92.8489C389.524 93.4891 386.194 93.8007 382.858 93.7788C377.338 93.7788 372.601 92.9444 368.597 91.3057C364.859 89.8162 361.501 87.5059 358.772 84.5447C356.173 81.6439 354.249 78.2017 353.137 74.4661C351.906 70.3681 351.294 66.1085 351.321 61.8289ZM522.789 31.1909C518.982 31.7415 515.216 32.5425 511.514 33.5887V92.1401H528.655V45.316C529.729 45.1652 530.953 45.0144 532.348 44.9089C533.743 44.8033 535.032 44.738 536.252 44.738C540.256 44.738 543.006 45.8891 544.451 48.2014C545.896 50.5137 546.633 54.4295 546.633 59.9589V92.1652H563.784V57.913C563.827 54.1092 563.405 50.3145 562.53 46.6129C561.757 43.4117 560.302 40.416 558.265 37.8312C556.094 35.2595 553.298 33.2925 550.146 32.1209C546.72 30.7804 542.439 30.1102 537.3 30.1102C532.443 30.0995 527.592 30.4608 522.789 31.1909Z" fill="#0033A0"/>
</svg>
